/* XPM */
static char * ChatGPT Image Jun 17, 2025, 05_57_35 PM_xpm[] = {
"32 32 18 1",
" 	c None",
".	c #E16A21",
"+	c #E16B21",
"@	c #E16B20",
"#	c #E16A20",
"$	c #E16920",
"%	c #FFFFFF",
"&	c #3C64CE",
"*	c #3A62CA",
"=	c #3861CA",
"-	c #E0631D",
";	c #E1681F",
">	c #E0671F",
",	c #E16921",
"'	c #E26A21",
")	c #E16B22",
"!	c #E16820",
"~	c #E0661E",
"                                ",
"                                ",
"                                ",
"            ........            ",
"          ...+@+###...          ",
"          .#+.########          ",
"        ..#.#######.#...        ",
"       ...########....#..       ",
"       .##$$$$##..$$$$#..       ",
"     ....%%%%.@...%%%%.....     ",
"     ...%%%%%%...%%%%%%.++.     ",
"     ...%%%%%%...%%%%%%....     ",
"     ...%%&*%%...%%=*%%.++.     ",
"    -;##%%**%%...%%=*%%...;.    ",
"    >..#%%%%%%...%%%%%%.....    ",
"    >#..,%%%%.....%%%%......    ",
"    >...#...................    ",
"    >.........'.............    ",
"    >.......................    ",
"    >........+......+).)....    ",
"    >.....+.+...#.....+.....    ",
"    >................++.....    ",
"    >................+......    ",
"    >..'  ++...  .....  ....    ",
"    >+;    ..+.   .+.    >..    ",
"    ..;    ..!.   ...    ~..    ",
"     ..    ...    ...    ..     ",
"                                ",
"                                ",
"                                ",
"                                ",
"                                "};
