/* XPM */
static char * ennemy_cyan_xpm[] = {
"32 32 6 1",
" 	c None",
".	c #48E2F4",
"+	c #FFFFFF",
"@	c #3C64CE",
"#	c #3A62CA",
"$	c #3861CA",
"                                ",
"                                ",
"                                ",
"            ........            ",
"          ............          ",
"          ............          ",
"        ................        ",
"       ..................       ",
"       ..................       ",
"     ....++++.....++++.....     ",
"     ...++++++...++++++....     ",
"     ...++++++...++++++....     ",
"     ...++@#++...++$#++....     ",
"    ....++##++...++$#++.....    ",
"    ....++++++...++++++.....    ",
"    .....++++.....++++......    ",
"    ........................    ",
"    ........................    ",
"    ........................    ",
"    ........................    ",
"    ........................    ",
"    ........................    ",
"    ........................    ",
"    ....  .....  .....  ....    ",
"    ...    ....   ...    ...    ",
"    ...    ....   ...    ...    ",
"     ..    ...    ...    ..     ",
"                                ",
"                                ",
"                                ",
"                                ",
"                                "};
