/* XPM */
static char * pacman_right_closed6_xpm[] = {
"32 32 30 1",
" 	c None",
".	c #040402",
"+	c #040302",
"@	c #030302",
"#	c #EFD326",
"$	c #F6D927",
"%	c #DFC422",
"&	c #040403",
"*	c #F1D426",
"=	c #F0D426",
"-	c #F5D827",
";	c #040303",
">	c #030303",
",	c #DFC522",
"'	c #000000",
")	c #DEC422",
"!	c #E0CB28",
"~	c #C5AD1D",
"{	c #C4AD1D",
"]	c #F4D727",
"^	c #030403",
"/	c #020202",
"(	c #030202",
"_	c #DABF21",
":	c #F1D526",
"<	c #D9BF21",
"[	c #020302",
"}	c #D5BB21",
"|	c #DFC523",
"1	c #CEB51F",
"                                ",
"                                ",
"                                ",
"                                ",
"                                ",
"            ....+@+@            ",
"          @@#$$$$$$%@&          ",
"        @+*$$$$$$$$$$=@+        ",
"       @%%-$$$$$$$$$$-%%;       ",
"       >$$$$$$$$$$$$$$$$@       ",
"      &,$$$$$$$$''$$$$$$,+      ",
"      +$$$$$$$$$.@$$$$$$$&      ",
"     @)$$$$$$$$$!!$$$$$$$,'     ",
"     &$$$$$$$$$$$$$$$$$$$$'     ",
"     &$$$$$$$$$$$$$$$$$$$$'     ",
"     .$$$$$$$$$''''''''''''     ",
"     &$$$$$$$$$~~~{{{{{{{{'     ",
"     ;$$$$$$$$$$$$$$$$$$$$'     ",
"     .$$$$$$$$$$$$$$$$$$$$'     ",
"     &{$$$$$$$$$$$$$$$$$${'     ",
"      &$$$$$$$$$$$$$$$$$$.      ",
"      +{$$$$$$$$$$$$$$$${&      ",
"       ;$$$$$$$$$$$$$$$$@       ",
"       ;~~]$$$$$$$$$$]~{^       ",
"        /(_)-$$$$$$:)<@@        ",
"          [@},||||,1@&          ",
"            @.@@@@@@            ",
"                                ",
"                                ",
"                                ",
"                                ",
"                                "};
