/* XPM */
static char * pacman_left_closed6_xpm[] = {
"32 32 30 1",
" 	c None",
".	c #030302",
"+	c #040302",
"@	c #040402",
"#	c #040403",
"$	c #DFC422",
"%	c #F6D927",
"&	c #EFD326",
"*	c #F0D426",
"=	c #F1D426",
"-	c #040303",
";	c #F5D827",
">	c #030303",
",	c #DFC522",
"'	c #000000",
")	c #E0CB28",
"!	c #DEC422",
"~	c #C4AD1D",
"{	c #C5AD1D",
"]	c #030403",
"^	c #F4D727",
"/	c #D9BF21",
"(	c #F1D526",
"_	c #DABF21",
":	c #030202",
"<	c #020202",
"[	c #CEB51F",
"}	c #DFC523",
"|	c #D5BB21",
"1	c #020302",
"                                ",
"                                ",
"                                ",
"                                ",
"                                ",
"            .+.+@@@@            ",
"          #.$%%%%%%&..          ",
"        +.*%%%%%%%%%%=+.        ",
"       -$$;%%%%%%%%%%;$$.       ",
"       .%%%%%%%%%%%%%%%%>       ",
"      +,%%%%%%''%%%%%%%%,#      ",
"      #%%%%%%%.@%%%%%%%%%+      ",
"     ',%%%%%%%))%%%%%%%%%!.     ",
"     '%%%%%%%%%%%%%%%%%%%%#     ",
"     '%%%%%%%%%%%%%%%%%%%%#     ",
"     ''''''''''''%%%%%%%%%@     ",
"     '~~~~~~~~{{{%%%%%%%%%#     ",
"     '%%%%%%%%%%%%%%%%%%%%-     ",
"     '%%%%%%%%%%%%%%%%%%%%@     ",
"     '~%%%%%%%%%%%%%%%%%%~#     ",
"      @%%%%%%%%%%%%%%%%%%#      ",
"      #~%%%%%%%%%%%%%%%%~+      ",
"       .%%%%%%%%%%%%%%%%-       ",
"       ]~{^%%%%%%%%%%^{{-       ",
"        ../!(%%%%%%;!_:<        ",
"          #.[,}}}},|.1          ",
"            ......@.            ",
"                                ",
"                                ",
"                                ",
"                                ",
"                                "};
