/* XPM */
static char *Archer_Red[] = {
/* columns rows colors chars-per-pixel */
"65 72 9 1 ",
"  c #161C2E",
". c #693D5B",
"X c #B65555",
"o c #977B6B",
"O c #C5836E",
"+ c #D5B583",
"@ c #EFE1AB",
"# c white",
"$ c None",
/* pixels */
"$$$$$$$$$$$    $$$$$$$$$$$$$$$$$$$$$$$$$$$$$$$$$$$$$$$$$$$$$$$$$$",
"$$$$$$$$$$      $$$$$$$    $$$$$$$$$$$$$$$$$$$$$$$$$$$$$$$$$$$$$$",
"$$$$$$$$$   X   $$$$$        $$$$$$$$$$$$$$$$$$$$$$$$$$$$$$$$$$$$",
"$$$$$$$$   OXX  $$$$   XXOO    $$$$$$$$$$$$$$$$$$$$$$$$$$$$$$$$$$",
"$$$$$$$$  OOOX  $$$$  OOOOOOO   $$$$$$$$$$$$$$$$$$$$$$$$$$$$$$$$$",
"$$$$$$$   OOOO  $$$   OOOOOOXX   $$$$$$$$$$$$$$$$$$$$$$$$$$$$$$$$",
"$$$$$$$  XOOOO  $$$  XXOOOOOOOXX $$$$$$$$$$$$$$$$$$$$$$$$$$$$$$$$",
"$$$$$$$ XXOOOO   $   OOOOXX OOO   $$$$$$$$$$$$$$$$$$$$$$$$$$$$$$$",
"$$$$$$$ XXXXOO      OOOOOOXX OOX  $$$$$$$$$$$$$$$$$$$$$$$$$$$$$$$",
"$$$$$$$ XXXOOXX     OOOOOOOO  OX  $$$$$$$$$$$$$$$$$$$$$$$$$$$$$$$",
"$$$$$$$ X XXXXX.   XXOOOOOOOO  XX  $$$$$$$$$$$$$$$$$$$$$$$$$$$$$$",
"$$$$$$$   XXX.....XXXXXOOOOOOX..X  $$$$$$$$$$$$$$$$$$$$$$$$$$$$$$",
"$$$$$$$$   XXX...XXXXXX   OOOX  .  $$$$$$$$$$$$$$$$$$$$$$$$$$$$$$",
"$$$$$$$$$   ......XX        XX     $$$$$$$$$$$$$$$$$$$$$$$$$$$$$$",
"$$$$$$$$$$    ....           X       $$$$$$$$$$$$$$$$$$$$$$$$$$$$",
"$$$$$$$$$$$            ++++  X.        $$$$$$$$$$$$$$$$$$$$$$$$$$",
"$$$$$$$$$$$$$         oo++++ ..          $$$$$$$$$$$$$$$$$$$$$$$$",
"$$$$$$$$$$$$$$$$$$   +++++++ ..    +++    $$$$$$$$$        $$$$$$",
"$$$$$$$$$$$$$$$$$   +++++++++++++   ++++   $$$$$$$     ++  $$$$$$",
"$$$$$$$$$$$$$$$$   +++++++++@@@@++   @+++  $$$$$$   O ++  $$$$$$$",
"$$$$$$$$$$$$$$$$  o++++++@@@@@@@@@+  @@++++ $$$$$  OO ++  $$$$$$$",
"$$$$$$$$$$$$$$$ oo++++++@@@@@###@@@   @@@@   $$$   O ++  $$$$$$$$",
"$$$$$$$$$$$$$$   o++++++@@@@###@@@@+  @@@++  $$$  OO ++  $$$$$$$$",
"$$$$$$$$$$$$$$  ooo++++++@@@@@@@@@@+   @@@++  $$  OO ++  $$$$$$$$",
"$$$$$$$$$$$$$   o++++@@@@@@@####@@@@ o @@@@+   $  OO o+  $$$$$$$$",
"$$$$$$$$$$$$$  oo+++++@@@@@@@######@+o @##@@+  $  XXOo+o  $$$$$$$",
"$$$$$$$$$$$$   oo++++@@@@@@@@@@##@@@+o @@@@@+     XOO  o  $$$$$$$",
"$$$$$$$$$$$   oo+++++@@@@@@@@#####@@+  @###@@+     XXX oo  $$$$$$",
"$$$$$$$$$     oo+++++@@@@@@@@@@###@@+  @@##@++     XXXXooo  $$$$$",
"$$$$$$$     oooo+++++@@@@@@@@@@###@@+  @@@@@@@   #  XXXo +  $$$$$",
"$$$$$$       ooo++++@@@@@@@@@@@@@@@@++ +@@@@@@+  ## XXXX ++  $$$$",
"$$$$$   oo   ooo++++@@@@@@@@######@@++  @@@@@@+  ##  XXX  ++  $$$",
"$$$$   oo    ooo++++@@@@@@@@###@@@@@@+  @@@@@@@  ##  XXXX  +  $$$",
"$$$   ooooo    o++++@@@@@@@@@@@@###@@+  @@@@@@@  ##   XXXX ++  $$",
"$$$   oooooo  ooo+++@@+@@@@@@@@@###@@+  @@@@@@   #++   XOO X+  $$",
"$$     oooo+   oo+++@@+@@@@@@@@@@##@@+ +@@@@@@  o#+++  XOOOX++  $",
"$$  oooooo+++   oo++@@+@@@@@@@@@@@@@@+ +@@@@@   +#+++   XOO  +  $",
"$$   oooo+++++oo  ++@++@@@@@@@@@@@##@+o+@@@@   ++++++   OOO  +  $",
"$$   ooooo+++++    +@++@@@@@@@@@@@@@@+o+@@@   ++++@@++  OOOO ++  ",
"$$   ooo+++++++++    +++@@@++@@@@@@@@+o+@@   ++++++@@+  OOOO  +  ",
"$$   ooo++++++++++          +++@@@@@@+++    +++++@@@@+  XXOO  +  ",
"$$$   oo++++++++++++               +++    +++++++@@++   XOOO  +  ",
"$$$   o++++++++++++++++++++++++++++++++++++++++@@#+++   XXOO  +  ",
"$$$    oo+++++++@@@@+++++++++++++++++++++++++++++#+@    XOOO  +  ",
"$$$$    ooo+++++++@@@@@+++++++++@@+++++++@@@@++++#      XOOO  +  ",
"$$$$     ++++++++@@@@@@@@@++++@@@@+++++++++@@@@@ #   $  XOOO  +  ",
"$$$$$      ++++++++++@@@@@@@@+++++++++@@@@@@@@   #  $$  XXOO  +  ",
"$$$$$$$        ooo++++++++++++++@@@@@@@@@@@      #$$$$  XOOO  +  ",
"$$$$$$$$              ++@@@@@@@@@@@@@@           #$$$$  XXOO  +  ",
"$$$$$$$$$$                                      $#$$$$  OOO      ",
"$$$$$$$$$$$                                   $$$#$$$$  OO       ",
"$$$$$$$$$$$     .                         ..  $$$$$$$$  O       $",
"$$$$$             ....                 .....   $$$$$$      +++   ",
"$$$$               .........................   $$#$$$     ++++o  ",
"$$$            ....XX.....................X..  $$#$$     +++++o  ",
"$$    +++oo     ...XXXX.................XXX..  $$#$$  X  ++++oo  ",
"$$   ++++o      ........XXXXXXXXXXXXXXXXXX...  $$##  XX  ++++oo  ",
"$$   +++oooo      ..XXXXXXXXXXXXXXXXXXXXXX..   $$##  XX  ooooo  $",
"$$   +++++oo     .....XXXXXXXXXXXXXXXXXXX..   $$$#  XXX   ooo   $",
"$$   +++++oo      .......XXXXXXXXXXXXXX...   $$$$   XXX        $$",
"$$$   +++ooo        ....................    $$$$$  XXXXo      $$$",
"$$$$   oooo  $$          ...........       $$$$$   XXX o   $$$$$$",
"$$$$$       $$$   ...                      $$$$$  XOO  o  $$$$$$$",
"$$$$$$     $$$$$                            $$$$  XXOo+o  $$$$$$$",
"$$$$$$$$$$$$$$$                             $$$$  OO o+  $$$$$$$$",
"$$$$$$$$$$$$$$$         $$$$$$$$$$$          $$$  OO ++  $$$$$$$$",
"$$$$$$$$$$$$$$       $$$$$$$$$$$$$$$$$       $$$  OO ++  $$$$$$$$",
"$$$$$$$$$$$$       $$$$$$$$$$$$$$$$$$$$$       $   O ++  $$$$$$$$",
"$$$$$$$$$$$       $$$$$$$$$$$$$$$$$$$$$$$       $  OO ++  $$$$$$$",
"$$$$$$$$$$$$$$$$$$$$$$$$$$$$$$$$$$$$$$$$$$$$$$$$$   O ++  $$$$$$$",
"$$$$$$$$$$$$$$$$$$$$$$$$$$$$$$$$$$$$$$$$$$$$$$$$$$     ++  $$$$$$",
"$$$$$$$$$$$$$$$$$$$$$$$$$$$$$$$$$$$$$$$$$$$$$$$$$$$        $$$$$$"
};
