/* XPM */
static char * exit_xpm[] = {
"43 57 8 1",
" 	c None",
".	c #754867",
"+	c #B65555",
"@	c #161C2E",
"#	c #DAB570",
"$	c #B48355",
"%	c #866353",
"&	c #C5836E",
".......+...++++++..++++++++++++...........+",
"+++......++.++++...+++++++++++.++...+..++++",
"+++..++++++.@@@@@@@@@@@@@@@@@@.++++++..++++",
"+++..++++@@@@@@#$########$#@@@@@@++++..++++",
"+++..++@@@@@$###$########$###$@@@@@++..++++",
".....@@@@@######################@@@@@......",
"+...@@@@##########################@@@@...++",
"+++@@@@#####%%%%@@@@@@@@@@%%%%#####@@@@++++",
"++@@@####@@@@@@@@@@@@@@@@@@@@@@@@####@@@+++",
"+@@@##%%@@@@@$$$$$%$$$$%$$$$$@@@@@%%##@@@++",
"+@@@##@@@@@$$$$$$$%$$$$%$$$$$$$@@@@@##@@@++",
"+@@##@@@@$$$$$%$$$$$$$$$$$$%$$$$$@@@@##@@++",
"@@##@@@%%$$$$$%$$$$$$$$$$$$%$$$$$%%@@@##@@+",
"@@$@@@$$$$$$$$%$$$$$$$$$$$$%$$$$$$$$@@@$@@+",
"@@@@@$$$$$$$$$%$$$$$$$$$$$$%$$$$$$$$$@@@@@.",
"@@@@@$$$$$$$$$@@@@@@@@@@@@@@$$$$$$$$$@@@@@+",
"@@@@$$$$%$$$@@@@@@@@@@@@@@@@@@$$$%$$$$@@@@+",
"@@@@$$$$%%@@@@@@@@@@@@@@@@@@@@@@%%$$$$@@@@+",
"@@@$$$$$%@@@@@@@@........@@@@@@@@%$$$$$@@@+",
"@@@$$$$$@@@@@.@@.........@@@.@@@@@$$$$$@@@+",
"@@@$$$$@@@@...@@..........@@...@@@@$$$$@@@+",
"@@@$$$$@@@....@@..........@@....@@@$$$$@@@+",
"@@$$$$@@@@.....@...++++...@.....@@@@$$$$@@+",
"@@$$$$@@@......@++++++++++@......@@@$$$$@@@",
"@@$$%$@@@....++@++++++++++@++....@@@$%$$@@@",
"@@$$%$@@@.++.++@++++&+++++.++.++.@@@$%$$@@@",
"@@$$%$@@..++.++@++&+&++&++.++.++..@@$%$$@@@",
"@@$$%$@@.+++.++.++&&&+&&++.++.+++.@@$%$$@@@",
"@@$$%$@@++++.+&.++&&&+&&++.++.++++@@$%$$@@$",
"@@$$%$@@++++.&&.++&&&+&&+++.+.++++@@$%$$@@#",
"@@$$%$@@++++.&&.++&&++&&+&+.+.++++@@$%$$@@#",
"@@$$$$@@++++.&&.++&&++&&+&..+.++++@@$$$$@@#",
"@@$$$$@@+++++&&.++&&+&&&+&.&++++++@@$$$$@@#",
"@@$$$$@@+++++&&.++&&+&&&+&.&&+++++@@$$$$@@#",
"@@$$$$@@+++++&&+++&&+&&&+&.&&+++++@@$$$$@@#",
"@@$$$$@@+++++&&+++&&&&&&+&.&&+++++@@$$$$@@#",
"@@$$$$@@+++++&&@&+&&&&&&+&+&&+++++@@$$$$@@#",
"@@$$$$@@++++++&@&+&&&&&&+&+&&+++++@@$$$$@@#",
"@@$$$$@@++++++@@&+&&&&&&+++&&+++++@@$$$$@@#",
"@@$$$$@@++++++@+&+&&&&&&+++&&+++++@@$$$$@@#",
"@@$$$$@@++++++@+&+&&&+&&++++&+++++@@$$$$@@#",
"@@$$$$@@++++++@.&+&&&+&&++++&+++++@@$$$$@@#",
"@@$$$$@@++.++++.++&&++&&+++++++.++@@$$$$@@#",
"@@$$%$@@++.++++.++&&+++&++.++++.++@@$%$$@@#",
"@@$$%$@@++.++++.++&&+++&++.++++.++@@$%$$@@#",
"@@$$%$@@++.++++@++&++++&++.++++.++@@$%$$@@#",
"@@$$%$@@++.++++@+++++++&++.++++.++@@$%$$@@#",
"@@$$%$@@++.++++@++++++++++@++++.++@@$%$$@@#",
"$@$$%$@@++.++++@++++++++++@++++.++@@$%$$@$#",
"$@@%%%$@++.++++@+++.++++++@++++.++@$%%%$@$$",
"@@@%%%$@++..++@@+++.++++++@@++..++@$%%%@@@$",
"@@@@%%$@@+..++@@+++.++++++@@++..+@@$%%@@@@@",
"@@ @@@@@@@@.++@@++..++++++@@++.@@@@@@@@@  @",
" @   @@@@@@@@@@@@....++++@@@@@@@@@@@@  @   ",
"          @@@@@@@@@@@@@@@@@@@@@@           ",
"                                           ",
"                                           "};
