/* XPM */
static char * ground_xpm[] = {
"109 100 4 1",
" 	c #BFBA5B",
".	c #9BB94E",
"+	c #79A863",
"@	c #679175",
" ........... ..+++++++++++++++..++++++..+++++........    .....   ........... ..+++++++++++++++..++++++..+++++",
".............++++++++++++++++++++++++.....+++++..............................++++++++++++++++++++++++.....+++",
".......++++++++++...+++++++++++++++++..................................++++++++++...+++++++++++++++++........",
"..........++++++.....++...+++++++..++..................+++................++++++.....++...+++++++..++........",
".............+++.....+......++++....++................+++++..................+++.....+......++++....++.......",
".......  ......................................+++...++++++............  ....................................",
"......    ....    ............................+++++++++++++...........    ....    ...........................",
"....                ........++++.............+++++++++++++++++......                ........++++.............",
"+++              ++++..+++++++++++..++++....+++++++++++++++++++++++              ++++..+++++++++++..++++....+",
"+.....          +++++++++++++++++++++++++++++++++++++++++++++++++.....          +++++++++++++++++++++++++++++",
".......      .+++...+++++++++++++++++++++@@@@+++++++++++++++++.........      .+++...+++++++++++++++++++++@@@@",
"...         ............++++++++++++++++@@@@@@........@@@@+++......         ............++++++++++++++++@@@@@",
".           .......+++++++++++++++++@@@+@@@@@@@@@@@..@@@@@@@+....           .......+++++++++++++++++@@@+@@@@@",
"           ..........++++++++++++++@@@@@@@@@@@@@@@@@@@   @@@@...           ..........++++++++++++++@@@@@@@@@@",
" .....     ............+++++++++++@@@@@    @@@@    @@     @@@@   .....     ............+++++++++++@@@@@    @@",
".......     .  ............+++++++@@@       @@                 ........     .  ............+++++++@@@       @",
".........       ...........+++++@@@@        @                  ..........       ...........+++++@@@@        @",
"   .......   ... ...........      @                            .   .......   ... ...........      @          ",
"    .......................  ..                                     .......................  ..              ",
"    ...  .................. ....        ...     ..    ..            ...  .................. ....        ...  ",
"    ..     .........................   .....  ...... ....           ..     .........................   ..... ",
"                    .................  ..... ............                           .................  ..... ",
".         .................................. ............     ...         .................................. ",
".............++++++..........................................................++++++..........................",
"...........+++++++++.++++......   .........................................+++++++++.++++......   ...........",
".........+++++++++++++++++...      ..........+++.........................+++++++++++++++++...      ..........",
"........++++++++++++++++++             +++..+++++.......................++++++++++++++++++             +++..+",
"......++++++.....++++++++++++         +++++++..+++......+++...........++++++.....++++++++++++         +++++++",
"+...+++++++.......+++...+++++++   +++++..+++....+++....+++++...++...+++++++.......+++...+++++++   +++++..+++.",
"++................++..................................++++++++++++................++.........................",
"+++++..................................++.....++++....+++++++++++++++..................................++....",
"+.......................@@@@@@...@@@.+++++.++++++++..++++...+++++.......................@@@@@@...@@@.+++++.++",
".........@@@@@..@@@...    @@@@@.@@@@@+++++++++++++++++++.................@@@@@..@@@...    @@@@@.@@@@@++++++++",
"........@@@@@@@@@@@@.       @@@@@@  @@++++++++++++++++++................@@@@@@@@@@@@.       @@@@@@  @@+++++++",
"......@@@    @@@  @@         @@@@    @@  +++..++...++++...............@@@    @@@  @@         @@@@    @@  +++.",
"...@@@@                       @@          ++........++++++++++.....@@@@                       @@          ++.",
"+ @@                    +++    @  ..        ........+++++++++++++ @@                    +++    @  ..        .",
"           +++         +++++     ....         ......+++++                  +++         +++++     ....        ",
" ......  +++++++  +++++++++++++...........   ......++            ......  +++++++  +++++++++++++...........   ",
".............+++++++++++++++++++++...........................................+++++++++++++++++++++...........",
".................++++++++++++++++++++...++++++...................................++++++++++++++++++++...+++++",
"    .................+++++++++++++++++++++++++..................    .................++++++++++++++++++++++++",
"     ............+++++++...+++++++++++++++   +.................      ............+++++++...+++++++++++++++   ",
"        ....+++++++++++.....+++++++......     .............             ....+++++++++++.....+++++++......    ",
" ...     ...................++++.....  ..      ..............    ...     ...................++++.....  ..    ",
".....     .........................            ................ .....     .........................          ",
"..................................        +++      ...............................................        +++",
".................................+++++++++++++          +++......................................++++++++++++",
"................................+++++..+++++++++++++++++++++++++................................+++++..++++++",
"+++++++++....................++++++.....+++++++++++++++++++++++++++++++++....................++++++.....+++++",
"+++++......................................++++++++++++++++++++++++++......................................++",
"............................................+++....++++++++++++.............................................+",
"...................@@@@@....@@@@@......   ..++......+...++.........................@@@@@....@@@@@......   ..+",
".................@@@@@@@@..@@@@@@@....     .++...................................@@@@@@@@..@@@@@@@....     .+",
" ...............@@@   @@@@@@@    @@..        ++.............     ...............@@@   @@@@@@@    @@..        ",
" .....@@@@@..@@@@@      @@@@       @.         .........          .....@@@@@..@@@@@      @@@@       @.        ",
".....@@@@@@@@@@@@@        @                   ......            .....@@@@@@@@@@@@@        @                  ",
".@@.@@@  @@@@@  @@@                             ....          ...@@.@@@  @@@@@  @@@                          ",
"@@@@@@    @@@     @                             ................@@@@@@    @@@     @                          ",
"@@  @@                         ....     ++         .............@@  @@                         ....     ++   ",
"@                     ++++    ......   ++++         ........  @@@                     ++++    ......   ++++  ",
"      ...     ....   ++++++.. .......++++++      .........            ...     ....   ++++++.. .......++++++  ",
"     .....   ...+++++++++++.......+++++++++.............             .....   ...+++++++++++.......+++++++++..",
"   .......   ..+++++++++++.......+++++++++++...........   ...      .......   ..+++++++++++.......+++++++++++.",
" ........... ..+++++++++++++++..++++++..+++++........    .....   ........... ..+++++++++++++++..++++++..+++++",
".............++++++++++++++++++++++++.....+++++..............................++++++++++++++++++++++++.....+++",
".......++++++++++...+++++++++++++++++..................................++++++++++...+++++++++++++++++........",
"..........++++++.....++...+++++++..++..................+++................++++++.....++...+++++++..++........",
".............+++.....+......++++....++................+++++..................+++.....+......++++....++.......",
".......  ......................................+++...++++++............  ....................................",
"......    ....    ............................+++++++++++++...........    ....    ...........................",
"....                ........++++.............+++++++++++++++++......                ........++++.............",
"+++              ++++..+++++++++++..++++....+++++++++++++++++++++++              ++++..+++++++++++..++++....+",
"+.....          +++++++++++++++++++++++++++++++++++++++++++++++++.....          +++++++++++++++++++++++++++++",
".......      .+++...+++++++++++++++++++++@@@@+++++++++++++++++.........      .+++...+++++++++++++++++++++@@@@",
"...         ............++++++++++++++++@@@@@@........@@@@+++......         ............++++++++++++++++@@@@@",
".           .......+++++++++++++++++@@@+@@@@@@@@@@@..@@@@@@@+....           .......+++++++++++++++++@@@+@@@@@",
"           ..........++++++++++++++@@@@@@@@@@@@@@@@@@@   @@@@...           ..........++++++++++++++@@@@@@@@@@",
" .....     ............+++++++++++@@@@@    @@@@    @@     @@@@   .....     ............+++++++++++@@@@@    @@",
".......     .  ............+++++++@@@       @@                 ........     .  ............+++++++@@@       @",
".........       ...........+++++@@@@        @                  ..........       ...........+++++@@@@        @",
"   .......   ... ...........      @                            .   .......   ... ...........      @          ",
"    .......................  ..                                     .......................  ..              ",
"    ...  .................. ....        ...     ..    ..            ...  .................. ....        ...  ",
"    ..     .........................   .....  ...... ....           ..     .........................   ..... ",
"                    .................  ..... ............                           .................  ..... ",
".         .................................. ............     ...         .................................. ",
".............++++++..........................................................++++++..........................",
"...........+++++++++.++++......   .........................................+++++++++.++++......   ...........",
".........+++++++++++++++++...      ..........+++.........................+++++++++++++++++...      ..........",
"........++++++++++++++++++             +++..+++++.......................++++++++++++++++++             +++..+",
"......++++++.....++++++++++++         +++++++..+++......+++...........++++++.....++++++++++++         +++++++",
"+...+++++++.......+++...+++++++   +++++..+++....+++....+++++...++...+++++++.......+++...+++++++   +++++..+++.",
"++................++..................................++++++++++++................++.........................",
"+++++..................................++.....++++....+++++++++++++++..................................++....",
"+.......................@@@@@@...@@@.+++++.++++++++..++++...+++++.......................@@@@@@...@@@.+++++.++",
".........@@@@@..@@@...    @@@@@.@@@@@+++++++++++++++++++.................@@@@@..@@@...    @@@@@.@@@@@++++++++",
"........@@@@@@@@@@@@.       @@@@@@  @@++++++++++++++++++................@@@@@@@@@@@@.       @@@@@@  @@+++++++",
"......@@@    @@@  @@         @@@@    @@  +++..++...++++...............@@@    @@@  @@         @@@@    @@  +++.",
"...@@@@                       @@          ++........++++++++++.....@@@@                       @@          ++."};
