/* XPM */
static char * wall_xpm[] = {
"53 41 9 1",
" 	c None",
".	c #161C2E",
"+	c #7CBB4E",
"@	c #529650",
"#	c #387253",
"$	c #A55A50",
"%	c #CC804B",
"&	c #E0BD60",
"*	c #774352",
"                    ...                              ",
"                   ......                            ",
"                  ...++...                           ",
"                  ..++++...                          ",
"                  ..++++....                         ",
"                   ..++..@......                     ",
"                 .....@@@@........                   ",
"                ......#@@@@..$$$.....                ",
"               ...$$...#@@@...$$.......              ",
"              ...$$$$..##@@#..$$..%%%...             ",
"              ...$$$$...##@#..%..%%%%%...            ",
"           .......$$$$..##@#.%%%%&&&%%%...           ",
"          .....%$..%%%..####.%%%%&&%%%%...           ",
"         ...$&&%%%%%%%%%####%%%%%&&%%%%$...          ",
"        ...$$&&&&%%%$$**$%%%%%%&&&&&&&%$$..          ",
"        ..$$&&&&&&%****$$%%%%****%%&&&%%$...         ",
"       ...$%&&&&&&****$%%%%%%$$***%%%%%%$...         ",
"       ..$$%%%%%%%***$$%%&&&&&$$***%%%%%$$..         ",
"       ..$%%%&&&%.**$$%&&&&&&&%$$***%%%%$$...        ",
"      ..$$%%%&&&%.**$%%&&&&&%%%%$$.*%%%%$$...        ",
"      ..$$%%%%%%..*$$%%%%%&&%&&%$$..*%%%$$$..        ",
"      ..$$%%%%%%.**$$%%%&&&&&&&%%$$.*%$$$$$..        ",
"     ...$$%%%%%%.**$%%%%%%%%%%%%%$$..*$$$$$...       ",
"    ....$$%%%%%..**$%%%%%%%%%%%%%$$..*$$$$$...       ",
"    ....$$$%%%%..**$%%%%%%%%%%%%%$$...$$$$$...       ",
"   .....$$$%%%%..*$$%%%%%%%%%%$$$$$...$$$$$... ....  ",
"   ..#..$$$$%%%..*$$%%%%%%%%$$$$$$$...$$$$.... ..... ",
"   ..#...$$$$$$..*$$%%%%%%%$$$$$$$$...$$$$.......++..",
"   ..##..$$$$$$..*$$$%%%%%%$$$$.......$$$........++..",
"......#...$$$$$$.*$$$$$%%%$$$$.........$$.....@@.++..",
"..........$$$$$$...$$$$$$$$$$...++@@@.........@@++.. ",
"..+++......$$$$$...$$$$$$$$$$..+++@@@@.........@@... ",
"..@++@@@....$$$$$..$$$$$$$$$..@++@.@@@...####......  ",
"....@@@@......$$$$..$$$$$$$$..@@@...@@..@##.......   ",
" .....................$$$$$$..@@@......@@#...        ",
"   ....... ...................@@@@@..@@@#...         ",
"                    ...........@@@@@#####...         ",
"                       .........########...          ",
"                             ......####...           ",
"                               .........             ",
"                                ......               "};
