/* XPM */
static char * pacman_up_closed6_xpm[] = {
"32 32 30 1",
" 	c None",
".	c #000000",
"+	c #040403",
"@	c #040402",
"#	c #C4AD1D",
"$	c #F6D927",
"%	c #DFC522",
"&	c #040302",
"*	c #030403",
"=	c #030302",
"-	c #040303",
";	c #DFC422",
">	c #C5AD1D",
",	c #D9BF21",
"'	c #F4D727",
")	c #F5D827",
"!	c #F0D426",
"~	c #DEC422",
"{	c #CEB51F",
"]	c #F1D526",
"^	c #DFC523",
"/	c #E0CB28",
"(	c #D5BB21",
"_	c #EFD326",
":	c #020302",
"<	c #DABF21",
"[	c #F1D426",
"}	c #030202",
"|	c #020202",
"1	c #030303",
"                                ",
"                                ",
"                                ",
"                                ",
"                                ",
"            ........            ",
"          +@#$$#.$$%+&          ",
"        *=#$$$$#.$$$$%=-        ",
"       =#$$$$$$#.$$$$$$;&       ",
"       =>$$$$$$#.$$$$$$;=       ",
"      +,'$$$$$$#.$$$$$$)!+      ",
"      =~$$$$$$$#.$$$$$$$$=      ",
"     ={]$$$$$$$#.$$$$$$$$;=     ",
"     =%$$$$$$$$#.$$$$$$$$$&     ",
"     =^$$$$$$$$>.$$/=.$$$$=     ",
"     =^$$$$$$$$>.$$/@.$$$$&     ",
"     =^$$$$$$$$>.$$$$$$$$$@     ",
"     =^$$$$$$$$$$$$$$$$$$$@     ",
"     @%$$$$$$$$$$$$$$$$$$$@     ",
"     =()$$$$$$$$$$$$$$$$$_@     ",
"      =~$$$$$$$$$$$$$$$$$=      ",
"      :<'$$$$$$$$$$$$$$)[=      ",
"       }>$$$$$$$$$$$$$$;&       ",
"       |>$$$$$$$$$$$$$$;=       ",
"        --#$$$$$$$$$$%1=        ",
"          &+#$$$$$$~&+          ",
"            +@-+@++=            ",
"                                ",
"                                ",
"                                ",
"                                ",
"                                "};
