/* XPM */
static char * pacman_down_closed7_xpm[] = {
"32 32 30 1",
" 	c None",
".	c #030302",
"+	c #040403",
"@	c #040402",
"#	c #040303",
"$	c #040302",
"%	c #DEC422",
"&	c #F6D927",
"*	c #C4AD1D",
"=	c #030303",
"-	c #DFC522",
";	c #DFC422",
">	c #C5AD1D",
",	c #020202",
"'	c #030202",
")	c #F1D426",
"!	c #F5D827",
"~	c #F4D727",
"{	c #DABF21",
"]	c #020302",
"^	c #EFD326",
"/	c #D5BB21",
"(	c #DFC523",
"_	c #000000",
":	c #E0CB28",
"<	c #F1D526",
"[	c #CEB51F",
"}	c #F0D426",
"|	c #D9BF21",
"1	c #030403",
"                                ",
"                                ",
"                                ",
"                                ",
"                                ",
"            .++@+#@+            ",
"          +$%&&&&&&*+$          ",
"        .=-&&&&&&&&&&*##        ",
"       .;&&&&&&&&&&&&&&>,       ",
"       $;&&&&&&&&&&&&&&>'       ",
"      .)!&&&&&&&&&&&&&&~{]      ",
"      .&&&&&&&&&&&&&&&&&%.      ",
"     @^&&&&&&&&&&&&&&&&&!/.     ",
"     @&&&&&&&&&&&&&&&&&&&-@     ",
"     @&&&&&&&&&&&&&&&&&&&(.     ",
"     @&&&&&&&&&_>&&&&&&&&(.     ",
"     $&&&&_@:&&_>&&&&&&&&(.     ",
"     .&&&&_.:&&_>&&&&&&&&(.     ",
"     $&&&&&&&&&_*&&&&&&&&-.     ",
"     .;&&&&&&&&_*&&&&&&&<[.     ",
"      .&&&&&&&&_*&&&&&&&%.      ",
"      +}!&&&&&&_*&&&&&&~|+      ",
"       .;&&&&&&_*&&&&&&>.       ",
"       $;&&&&&&_*&&&&&&*.       ",
"        #.-&&&&_*&&&&*.1        ",
"          $+-&&_*&&*@+          ",
"            ________            ",
"                                ",
"                                ",
"                                ",
"                                ",
"                                "};
